# xmcd
#
# Track frame offsets:
#	150
#	14752
#	28202
#	37257
#	48942
#	61047
#	69527
#	80170
#	94030
#	107995
#	123812
#	134667
#	146282
#	156532
#	170392
#	183187
#	198850
#	210417
#
# Disc length: 3023
#
# Revision: 1
# Processed by: cddbd v1.5.1PL0 Copyright (c) Steve Scherf et al.
# Submitted via: CDex 1.50
# Normalized: r0:TDELIM( - )
#
DISCID=030bcd12
DTITLE=Various Artist - Sophisticated Ladies CD3
DYEAR=1999
DGENRE=Jazz
TTITLE0=Dinah Washington - For All We Know
TTITLE1=Dinah Shore - Falling In Love With Love
TTITLE2=Julie London - Diamonds Are A Girl's Best Friend
TTITLE3=Jube Christy - How High The Moon
TTITLE4=Shirley Bassey - I (Who Have Nothing)
TTITLE5=Keely Smith - What Is This Thing Called Love?
TTITLE6=April Stevens - Teach Me
TTITLE7=Carmen McRae - Star Eyes (Live)
TTITLE8=Jo Stafford - I'll Be With You In Apple Blossom Time
TTITLE9=Judy Garland - Over The Rainbow
TTITLE10=Helen Shapiro - Fever
TTITLE11=Alma Cogan - Bell Bottom Blues
TTITLE12=Lena Horne - On A Wonderful Day Like Today
TTITLE13=Rosemary Clooney - All By Myself
TTITLE14=Vikki Carr - For Once In My Life
TTITLE15=Helen Reddy - Angie Baby
TTITLE16=Crystal Gayle - Don't It Make My Brown Eyes Blue
TTITLE17=Peggy Lee - The Folks Who Live On The Hill
EXTD=YEAR: 1999
EXTT0=
EXTT1=
EXTT2=
EXTT3=
EXTT4=
EXTT5=
EXTT6=
EXTT7=
EXTT8=
EXTT9=
EXTT10=
EXTT11=
EXTT12=
EXTT13=
EXTT14=
EXTT15=
EXTT16=
EXTT17=
PLAYORDER=
